<?xml version="1.0" encoding="UTF-8"?>
<svg version="1.1" viewBox="0 0 24 24" xmlns="http://www.w3.org/2000/svg" xmlns:xlink="http://www.w3.org/1999/xlink">
    <!--Generated by IJSVG (https://github.com/iconjar/IJSVG)-->
    <g stroke-linecap="round" stroke-width="2" stroke="#FFF" fill="none" stroke-linejoin="round">
        <path d="M7,22c-2.7614,0 -5,-2.2386 -5,-5v-10c0,-2.7614 2.2386,-5 5,-5h10c2.7614,0 5,2.2386 5,5v10c0,2.7614 -2.2386,5 -5,5Z"></path>
        <path d="M16,11.37l2.37937e-08,1.60457e-07c0.324044,2.18524 -1.18476,4.21942 -3.37,4.54347c-2.18524,0.324044 -4.21942,-1.18476 -4.54347,-3.37c-0.324044,-2.18524 1.18476,-4.21942 3.37,-4.54347c0.389029,-0.0576881 0.784439,-0.0576881 1.17347,4.75874e-08l1.54692e-07,2.29388e-08c1.74298,0.258462 3.11154,1.62702 3.37,3.37Z"></path>
        <path d="M17.5,6.5v0"></path>
    </g>
</svg>